<?xml version="1.0" standalone="no"?>
<!DOCTYPE svg PUBLIC "-//W3C//DTD SVG 20010904//EN"
 "http://www.w3.org/TR/2001/REC-SVG-20010904/DTD/svg10.dtd">
<svg version="1.0" xmlns="http://www.w3.org/2000/svg"
 width="197.000000pt" height="197.000000pt" viewBox="0 0 197.000000 197.000000"
 preserveAspectRatio="xMidYMid meet">
<metadata>
Created by potrace 1.11, written by Peter Selinger 2001-2013
</metadata>
<g transform="translate(0.000000,197.000000) scale(0.100000,-0.100000)"
fill="#000000" stroke="none">
<path d="M1018 1949 c-75 -15 -201 -72 -292 -133 -141 -94 -242 -223 -289
-371 -31 -97 -31 -242 -1 -302 l21 -43 -24 -15 c-30 -20 -63 -73 -63 -103 0
-43 29 -83 76 -103 l44 -20 -26 -44 c-30 -53 -27 -83 17 -155 44 -71 40 -105
-23 -187 -75 -100 -83 -123 -59 -178 42 -96 140 -86 154 17 3 24 19 58 37 82
113 150 116 187 26 295 -43 51 -47 93 -13 134 19 24 32 28 90 34 l68 6 -20
-34 c-44 -76 -35 -162 25 -228 58 -65 56 -101 -13 -248 -71 -151 -81 -223 -41
-283 44 -63 129 -89 168 -50 26 26 25 33 -6 148 -34 125 -30 160 31 254 43 68
46 77 42 126 -2 35 -10 59 -25 75 -27 29 -52 88 -52 124 0 26 29 115 41 128 6
5 162 35 166 31 1 -1 -11 -28 -27 -60 -17 -32 -30 -68 -30 -80 0 -23 25 -77
65 -141 31 -50 27 -77 -28 -163 -68 -109 -58 -192 24 -192 50 0 88 49 148 189
71 167 70 173 -40 303 -39 46 -41 93 -6 140 21 27 39 37 97 52 39 10 74 15 77
12 4 -3 -1 -22 -10 -41 -29 -61 -22 -133 19 -211 47 -89 44 -133 -15 -262 -50
-109 -62 -186 -38 -244 27 -65 114 -100 153 -61 14 15 16 30 11 104 -6 84 -5
90 23 141 96 171 97 184 25 294 -60 91 -68 121 -48 187 17 58 21 102 11 132
-6 16 1 25 37 47 79 48 104 120 69 194 -9 19 -28 41 -43 50 -25 15 -26 18 -26
112 0 76 -5 112 -24 167 -81 239 -206 364 -376 379 -33 2 -81 0 -107 -5z m-31
-176 c4 -9 -2 -32 -13 -52 -15 -28 -37 -45 -99 -76 -94 -47 -104 -64 -104
-191 -1 -72 -5 -89 -36 -152 -35 -69 -101 -142 -129 -142 -8 0 -24 12 -36 28
-30 37 -22 90 23 156 56 81 62 98 43 134 -32 62 -15 103 79 196 69 68 161 116
222 116 31 0 45 -5 50 -17z"/>
</g>
</svg>
